<?xml version="1.0" standalone="no"?><!DOCTYPE svg PUBLIC "-//W3C//DTD SVG 1.1//EN" "http://www.w3.org/Graphics/SVG/1.1/DTD/svg11.dtd"><svg t="1598800271667" class="icon" viewBox="0 0 1024 1024" version="1.1" xmlns="http://www.w3.org/2000/svg" p-id="4607" xmlns:xlink="http://www.w3.org/1999/xlink" width="128" height="128"><defs><style type="text/css"></style></defs><path d="M922.935618 0H108.52388c-15.142256 0-35.458883 11.307444-35.458882 42.655723L67.956292 980.214846V982.342379c0 36.089263 20.42169 41.657621 35.458883 41.657621h800.635305c17.558713-0.682912 50.075822-1.694147 50.075822-40.593854a40.278664 40.278664 0 0 1 0.459652-6.277536l1.457754-54.672344V35.524547c0-7.341302-0.682912-35.524547-33.10809-35.524547z m-13.789566 884.344534l-1.313292 49.603037a39.175499 39.175499 0 0 0-0.40712 5.686554c0 35.288155-29.010619 36.207459-44.651926 36.772175H148.290361c-13.434977 0-31.650336-5.056174-31.650336-37.78341v-1.930539l4.517724-850.474734c0-28.432771 18.123429-38.689581 31.650336-38.689581h726.788899c28.892423 0 29.549069 25.569794 29.549068 32.228184z" p-id="4608"></path><path d="M613.484636 247.22721H207.638024a29.562202 29.562202 0 1 1 0-59.098138h405.807213a29.562202 29.562202 0 0 1 0 59.098138z m-113.389628 165.868773H214.532807a30.520905 30.520905 0 0 1 0-61.04181h285.562201a30.520905 30.520905 0 0 1 0 61.04181z m-136.845021 170.228903H220.311291a32.582773 32.582773 0 0 1 0-65.165547h142.938696a32.582773 32.582773 0 0 1 0 65.165547z m0 0M488.18345 808.449392l76.486124-24.006977a12.607603 12.607603 0 0 0 5.345098-3.204432l227.593495-227.672293a13.13292 13.13292 0 0 0 0-18.386087l-52.531678-52.439748a13.13292 13.13292 0 0 0-18.386087 0l-227.593495 227.593495a13.13292 13.13292 0 0 0-3.204433 5.253168l-23.993844 76.525522a13.014723 13.014723 0 0 0 16.245422 16.41615m300.953983-388.156569l-20.408557 20.356025a13.13292 13.13292 0 0 0 0 18.386087l52.531678 52.531678a13.13292 13.13292 0 0 0 18.386088 0l11.123582-11.123583a38.085467 38.085467 0 0 0 0-53.84497l-26.265839-26.200174a24.952547 24.952547 0 0 0-35.366952-0.118196" p-id="4609"></path></svg>
