<?xml version="1.0" standalone="no"?><!DOCTYPE svg PUBLIC "-//W3C//DTD SVG 1.1//EN" "http://www.w3.org/Graphics/SVG/1.1/DTD/svg11.dtd"><svg t="1598800411638" class="icon" viewBox="0 0 1024 1024" version="1.1" xmlns="http://www.w3.org/2000/svg" p-id="8892" xmlns:xlink="http://www.w3.org/1999/xlink" width="128" height="128"><defs><style type="text/css"></style></defs><path d="M512.146 1019C233.053 1019 6 791.782 6 512.507 6 233.207 233.053 5.982 512.146 5.982c279.07 0 506.156 227.246 506.156 506.524 0 279.276-227.034 506.494-506.156 506.494z m0-959.494c-249.562 0-452.593 203.191-452.593 452.971 0 249.79 203.031 452.949 452.593 452.949 249.578 0 452.61-203.185 452.61-452.949 0-249.78-203.032-452.971-452.61-452.971z m0 0" fill="" p-id="8893"></path><path d="M762.066 627.908L644.234 510.083c7.588-21.182 11.428-43.327 11.428-66.02 0-108.407-88.189-196.607-196.608-196.607-26.987 0-53.247 5.44-78.025 16.166l-11.72 5.075c-0.021 0.018 0.072 0.027 0.035 0.045a9.96 9.96 0 0 0-3.07 2.102c-3.877 3.885-3.877 10.203 0.018 14.1 0.055 0.055-0.055 0.083-0.018 0.135l110.08 110.08-66.214 66.205-107.868-107.878c-0.163 0.02-0.328 0.028-0.548-0.193-4.572-4.57-11.978-4.57-16.547 0a11.738 11.738 0 0 0-2.725 4.263c-0.055 0.146-0.13 0.073-0.203 0.083l-3.637 8.41c-10.714 24.75-16.165 51.007-16.165 78.015 0 108.398 88.193 196.608 196.607 196.608 22.675 0 44.818-3.841 66.03-11.428l117.833 117.815c15.91 15.907 37.065 24.685 59.575 24.685h0.02c22.49 0 43.665-8.777 59.575-24.685 32.823-32.84 32.823-86.291-0.021-119.151z m-26.459 92.672c-8.851 8.851-20.607 13.716-33.098 13.716h-0.018c-12.508 0-24.266-4.865-33.098-13.716L533.879 585.083l-11.685 5.048c-20.057 8.686-41.305 13.093-63.14 13.093-87.752 0-159.157-71.388-159.157-159.161 0-12.194 1.369-24.2 4.094-35.902l98.998 99.017c4.152 3.308 9.857 3.355 14.08 0.21l104.083-104.083c0.037-0.038-0.035-0.083 0-0.121 4.242-4.24 4.369-10.86 0.732-15.459l-98.743-98.733a158.807 158.807 0 0 1 35.912-4.087c87.752 0 159.158 71.397 159.158 159.157 0 21.863-4.405 43.1-13.09 63.123l-5.048 11.686L735.59 654.386c18.25 18.25 18.25 47.944 0.017 66.194z m0 0" fill="" p-id="8894"></path></svg>