<?xml version="1.0" standalone="no"?><!DOCTYPE svg PUBLIC "-//W3C//DTD SVG 1.1//EN" "http://www.w3.org/Graphics/SVG/1.1/DTD/svg11.dtd"><svg t="1598800487181" class="icon" viewBox="0 0 1024 1024" version="1.1" xmlns="http://www.w3.org/2000/svg" p-id="11495" xmlns:xlink="http://www.w3.org/1999/xlink" width="128" height="128"><defs><style type="text/css"></style></defs><path d="M220.794706 472.72623h490.483126c17.927895 0 30.127823-12.671926 30.127824-38.857772 0-18.027894-12.199929-40.113765-30.213823-40.113765h-490.397127c-17.999895 0-30.171823 22.085871-30.171823 40.113765s12.157929 38.857772 30.171823 38.857772z m0.156999-196.27085l215.598737 1.213993c17.999895 0 30.213823-22.084871 30.213823-40.156765s-12.199929-40.156765-30.213823-40.156764l-215.598737-1.227993c-17.999895 0-30.213823 22.084871-30.213823 40.199764s12.199929 40.127765 30.213823 40.127765z m177.46996 629.025314H158.66607a45.399734 45.399734 0 0 1-45.270734-45.356734V122.85628a45.413734 45.413734 0 0 1 45.270734-45.327734h615.796392c24.999854 0 56.37167 15.870907 56.37167 40.91376v472.483232c0 35.513792 39.756767 39.370769 39.756767 39.370769 23.299863 0 39.742767-21.070877 39.742767-39.370769V118.442306C910.333666 57.456663 853.191001 0 796.618332 0H136.5662C80.095531 0 34.1388 44.799738 34.1388 101.428406v780.852424a102.628399 102.628399 0 0 0 102.4274 102.570399h262.427462c16.613903 0 28.413834-9.685943 28.413834-41.142759 0-25.784849-14.185917-38.184776-29.05683-38.184776zM791.078365 708.995846H592.335529l58.784656-52.756691a38.399775 38.399775 0 1 0-54.284682-54.371682l-119.999297 120.371295a38.570774 38.570774 0 0 0 0 54.370682l119.999297 118.285306a38.328775 38.328775 0 0 0 54.284682 0v-0.085999a38.399775 38.399775 0 0 0 0-54.284682l-58.784656-52.757691H791.118365c87.257489 0 119.242301 15.557909 119.242301 78.742539 0 59.68565-38.356775 78.742539-119.242301 78.742538h-79.499535c-21.184876 0-39.741767 18.156894-39.741767 39.37177S690.448954 1023.994 711.61883 1023.994h79.499535c167.785017 0 198.727836-48.742714 198.727835-157.499077 0-109.885356-26.628844-157.499077-198.784835-157.499077z" p-id="11496"></path></svg>