<?xml version="1.0" standalone="no"?><!DOCTYPE svg PUBLIC "-//W3C//DTD SVG 1.1//EN" "http://www.w3.org/Graphics/SVG/1.1/DTD/svg11.dtd"><svg t="1598800371115" class="icon" viewBox="0 0 1024 1024" version="1.1" xmlns="http://www.w3.org/2000/svg" p-id="7945" xmlns:xlink="http://www.w3.org/1999/xlink" width="128" height="128"><defs><style type="text/css"></style></defs><path d="M352 256h320a32 32 0 1 1 0 64h-320a32 32 0 0 1 0-64z m-128 0a32 32 0 1 1 0 64 32 32 0 0 1 0-64z m128 256h320a32 32 0 1 1 0 64h-320a32 32 0 0 1 0-64z m-128 0a32 32 0 1 1 0 64 32 32 0 0 1 0-64zM896 416a32 32 0 1 1-64 0v-320a32 32 0 0 0-32-32h-704a32 32 0 0 0-32 32v832a32 32 0 0 0 32 32h320a32 32 0 1 1 0 64h-320A96 96 0 0 1 0 928v-832A96 96 0 0 1 96 0h704A96 96 0 0 1 896 96v320z m69.952 109.44a32 32 0 1 1 52.096 37.12l-316.096 442.56-1.28 1.664a38.4 38.4 0 0 1-53.952 5.952L492.032 888.96a32 32 0 1 1 39.936-49.92l133.632 106.88 300.352-420.48z" p-id="7946"></path></svg>
