<?xml version="1.0" standalone="no"?><!DOCTYPE svg PUBLIC "-//W3C//DTD SVG 1.1//EN" "http://www.w3.org/Graphics/SVG/1.1/DTD/svg11.dtd"><svg t="1598808000261" class="icon" viewBox="0 0 1024 1024" version="1.1" xmlns="http://www.w3.org/2000/svg" p-id="16469" xmlns:xlink="http://www.w3.org/1999/xlink" width="128" height="128"><defs><style type="text/css"></style></defs><path d="M474.24 663.68h80.64v291.2H474.24z" p-id="16470"></path><path d="M1006.72 456.32L532.48 82.56a28.16 28.16 0 0 0-34.56 0L19.2 456.32a28.16 28.16 0 1 0 35.2 44.8l43.52-33.92v459.52a28.16 28.16 0 0 0 28.16 28.16h291.2v-320A28.16 28.16 0 0 1 448 606.72h135.04a28.16 28.16 0 0 1 28.16 28.16v320h288a28.16 28.16 0 0 0 28.16-28.16V466.56l43.52 33.92a28.16 28.16 0 1 0 35.2-44.8z" p-id="16471"></path></svg>