<?xml version="1.0" standalone="no"?><!DOCTYPE svg PUBLIC "-//W3C//DTD SVG 1.1//EN" "http://www.w3.org/Graphics/SVG/1.1/DTD/svg11.dtd"><svg t="1590072190932" class="icon" viewBox="0 0 1024 1024" version="1.1" xmlns="http://www.w3.org/2000/svg" p-id="4585" width="128" height="128" xmlns:xlink="http://www.w3.org/1999/xlink"><defs><style type="text/css"></style></defs><path d="M509.025632 0h4.813481c27.802395 0.420044 55.604789 3.87122 82.487628 11.091441 42.310953 11.193614 82.283282 31.071929 116.840443 57.932062 56.104302 43.332683 97.597871 105.24949 116.000355 173.739424 13.827406 50.995654 15.098891 105.317605 3.814457 156.926297-8.684701 39.881508-25.02102 78.026075-47.692063 111.947494-9.468027 13.770643-19.299335 27.461818-31.423858 39.030067-76.595654 77.083814-153.463769 153.883814-230.252416 230.763282-6.300665 6.709357-18.027849 6.550421-24.169579-0.295167-75.812328-75.937206-151.692772-151.794945-227.391574-227.845676-4.858891-4.983769-10.047007-9.683725-14.338271-15.178359-30.515654-37.020665-52.857472-80.773392-64.720887-127.262085-12.431042-48.407273-13.566297-99.629978-3.496585-148.559467 12.169933-59.623592 41.550333-115.546253 83.486652-159.616852 32.263947-34.05765 71.861641-61.122129 115.364612-78.695876C426.583415 8.412239 467.781818 0.522217 509.025632 0m-16.858537 180.221729c-37.372594 5.040532-72.224922 25.917871-94.419157 56.388116-17.528337 23.681419-27.257472 52.993703-27.348293 82.464922-0.340576 28.54031 8.321419 57.091973 24.453393 80.637162 17.823503 26.292506 44.751752 46.307051 75.15388 55.582084 29.698271 9.240976 62.473082 8.241951 91.558315-2.781374 35.88541-13.361951 65.663149-42.049845 80.410111-77.37898 16.767716-39.154945 14.338271-85.88204-6.425544-123.072994-15.076186-27.450466-39.540931-49.656053-68.399113-61.871397-23.465721-10.092417-49.701463-13.407361-74.983592-9.967539z" p-id="4586" fill="#bfcbd9"></path><path d="M198.408514 741.173925c47.794235-16.835831 97.541109-27.586696 147.617207-34.909091C385.441774 747.088603 424.925942 787.866962 464.296585 828.736142c9.229623 11.613659 22.591574 20.003193 37.315832 22.375876 17.755388 3.156009 36.770909-2.338625 50.076097-14.519912 41.550333-43.661907 83.793171-86.688071 125.468382-130.247804 42.65153 5.937384 84.951131 14.917251 126.115477 27.620753 34.523104 10.853038 68.558049 24.283104 99.232638 43.684612 17.176408 11.034678 33.512727 24.101463 45.353437 40.91459 9.025277 12.805676 14.849135 28.381375 13.804701 44.218182-0.930909 18.2549-10.410288 34.931796-22.489402 48.202927-21.467672 23.318137-49.644701 39.132239-78.185011 52.176319-56.047539 24.737206-116.170643 38.871131-176.532151 48.21428-43.355388 6.402838-87.108115 10.694102-130.928958 11.556895l4.189091 1.06714h-67.479556c-9.365854-0.806031-18.777118-0.53357-28.154324-1.06714-72.122749-3.019778-144.256851-11.84071-214.154501-30.209135-36.895787-9.922129-73.360177-22.307761-107.224834-40.165321-19.628559-10.501109-38.575965-22.864035-54.072195-38.984657-10.921153-11.420665-20.037251-25.145898-23.522483-40.744301-3.235477-14.258803-1.010377-29.459867 5.494634-42.492595 8.99122-18.30031 24.214989-32.672639 40.449135-44.604168 27.121242-19.605854 57.988825-33.308381 89.35592-44.558758z" p-id="4587" fill="#bfcbd9"></path></svg>